<svg xmlns="http://www.w3.org/2000/svg" version="1.1" xml:space="preserve" id="bsvg257" width="110" height="128" viewBox="0 0 110 128"><style type="text/css" id="bstyle217">.bst0,.bst1{fill-rule:evenodd;clip-rule:evenodd;fill:#f68b1f}.bst1{fill:#a6193c}</style><path id="bpath219" d="M33.472 25.49h48.81c7.766 0 14.075 6.371 14.075 14.198v48.693c0 7.758-6.378 14.13-14.074 14.13h-43.61v-6.442h43.194c4.645 0 8.112-3.532 8.112-8.034v-48c0-4.641-3.467-8.104-8.112-8.104H33.819c-4.646 0-8.112 3.532-8.112 8.104v28.467c-2.15 1.94-4.368 3.948-6.102 6.234-.069.138-.208.277-.277.346V39.688c0-7.827 6.379-14.199 14.144-14.199z" class="bst0" clip-rule="evenodd" fill="#f68b1f" fill-rule="evenodd" stroke-width=".693"/><path id="bpath221" d="M30.56 36.78c14.005.623 27.11 12.536 27.317 26.874.14-15.654 14.7-26.46 27.248-26.944v17.8c-9.082.278-20.245-.068-27.317 9.49-30.021 0-47.147 27.29-44.928 51.325h19.275C29.38 96 36.73 70.095 57.808 64c15.6 0 26.485 14.753 27.317 27.22H67.376c-.277-9.835-.624-20.778-9.568-27.22-6.795-9.281-17.056-9.143-27.248-9.42z" class="bst1" clip-rule="evenodd" fill="#a6193c" fill-rule="evenodd" stroke-width=".693"/></svg>